<svg width="1744" height="500" viewBox="0 0 1744 500" fill="none" xmlns="http://www.w3.org/2000/svg">
<g clip-path="url(#clip0_1810_84)">
<rect width="1744" height="500" rx="50" fill="#05143A"/>
<path d="M1401.3 162.575C1450.62 89.7827 1478.43 4.56135 1481.52 -83.3126C1479.42 -126.101 1460.95 -166.442 1429.92 -195.983C1398.9 -225.524 1357.7 -242 1314.86 -242C1272.02 -242 1230.82 -225.524 1199.79 -195.983C1168.77 -166.442 1150.29 -126.101 1148.19 -83.3126C1148.19 54.2719 1272.14 277.696 1494.76 418.49" stroke="url(#paint0_linear_1810_84)" stroke-width="30" stroke-miterlimit="10" stroke-linecap="round"/>
<path d="M990.534 -83.7119C699.722 120.057 606.26 347.894 674.05 463.016C741.839 578.137 981.309 543.24 1214.36 359.928" stroke="url(#paint1_linear_1810_84)" stroke-width="30" stroke-miterlimit="10" stroke-linecap="round"/>
<path opacity="0.7" d="M1745.1 523.589C1840.56 540.035 1918.78 523.589 1954.48 463.421C2037.92 325.435 1861.82 59.4923 1636.79 -83.3066" stroke="url(#paint2_linear_1810_84)" stroke-width="30" stroke-miterlimit="10" stroke-linecap="round"/>
<path d="M973.783 353.929C972.182 340.618 971.379 327.224 971.376 313.817C971.179 232.861 999.592 154.439 1051.6 92.3984" stroke="url(#paint3_linear_1810_84)" stroke-width="30" stroke-miterlimit="10" stroke-linecap="round"/>
<path d="M1580.59 92.3984C1636.13 158.043 1665.15 242.063 1661.96 327.992C1658.78 413.92 1623.61 495.562 1563.37 556.914C1503.12 618.266 1422.13 654.905 1336.27 659.651C1250.42 664.397 1165.88 636.906 1099.24 582.568" stroke="url(#paint4_linear_1810_84)" stroke-width="30" stroke-miterlimit="10" stroke-linecap="round"/>
<path d="M565.129 160.344V203H557.072V160.344H565.129ZM582.326 178.771V185.129H563.02V178.771H582.326ZM584.582 160.344V166.701H563.02V160.344H584.582ZM597.678 171.301V203H589.914V171.301H597.678ZM589.387 163.01C589.387 161.857 589.777 160.9 590.559 160.139C591.359 159.377 592.434 158.996 593.781 158.996C595.129 158.996 596.193 159.377 596.975 160.139C597.775 160.9 598.176 161.857 598.176 163.01C598.176 164.143 597.775 165.09 596.975 165.852C596.193 166.613 595.129 166.994 593.781 166.994C592.434 166.994 591.359 166.613 590.559 165.852C589.777 165.09 589.387 164.143 589.387 163.01ZM612.795 177.775V203H605.061V171.301H612.385L612.795 177.775ZM622.434 171.096L622.316 178.303C621.887 178.225 621.398 178.166 620.852 178.127C620.324 178.088 619.826 178.068 619.357 178.068C618.166 178.068 617.121 178.234 616.223 178.566C615.324 178.879 614.572 179.338 613.967 179.943C613.381 180.549 612.932 181.291 612.619 182.17C612.307 183.029 612.131 184.006 612.092 185.1L610.422 184.895C610.422 182.883 610.627 181.018 611.037 179.299C611.447 177.58 612.043 176.076 612.824 174.787C613.605 173.498 614.582 172.502 615.754 171.799C616.945 171.076 618.312 170.715 619.855 170.715C620.285 170.715 620.744 170.754 621.232 170.832C621.74 170.891 622.141 170.979 622.434 171.096ZM640.334 203.586C637.932 203.586 635.773 203.195 633.859 202.414C631.945 201.633 630.314 200.549 628.967 199.162C627.639 197.756 626.613 196.125 625.891 194.27C625.188 192.395 624.836 190.383 624.836 188.234V187.062C624.836 184.621 625.188 182.404 625.891 180.412C626.594 178.4 627.59 176.672 628.879 175.227C630.168 173.781 631.711 172.668 633.508 171.887C635.305 171.105 637.287 170.715 639.455 170.715C641.701 170.715 643.684 171.096 645.402 171.857C647.121 172.6 648.557 173.654 649.709 175.021C650.861 176.389 651.73 178.029 652.316 179.943C652.902 181.838 653.195 183.938 653.195 186.242V189.494H628.352V184.162H645.578V183.576C645.539 182.346 645.305 181.223 644.875 180.207C644.445 179.172 643.781 178.352 642.883 177.746C641.984 177.121 640.822 176.809 639.396 176.809C638.244 176.809 637.238 177.062 636.379 177.57C635.539 178.059 634.836 178.762 634.27 179.68C633.723 180.578 633.312 181.652 633.039 182.902C632.766 184.152 632.629 185.539 632.629 187.062V188.234C632.629 189.562 632.805 190.793 633.156 191.926C633.527 193.059 634.064 194.045 634.768 194.885C635.49 195.705 636.35 196.35 637.346 196.818C638.361 197.268 639.514 197.492 640.803 197.492C642.424 197.492 643.889 197.18 645.197 196.555C646.525 195.91 647.678 194.963 648.654 193.713L652.551 197.756C651.887 198.732 650.988 199.67 649.855 200.568C648.742 201.467 647.395 202.199 645.812 202.766C644.23 203.312 642.404 203.586 640.334 203.586ZM668.518 203H660.725V168.664C660.725 166.223 661.213 164.172 662.189 162.512C663.186 160.832 664.621 159.562 666.496 158.703C668.371 157.824 670.637 157.385 673.293 157.385C674.387 157.385 675.744 157.443 677.365 157.561C679.006 157.678 680.686 157.824 682.404 158C684.143 158.176 685.705 158.361 687.092 158.557L683.811 164.592C682.014 164.279 680.314 164.035 678.713 163.859C677.131 163.664 675.656 163.566 674.289 163.566C673.039 163.566 671.984 163.762 671.125 164.152C670.266 164.543 669.611 165.119 669.162 165.881C668.732 166.623 668.518 167.551 668.518 168.664V203ZM679.328 203V158.557H687.092V203H679.328ZM674.934 171.301V176.867H655.949V171.301H674.934ZM703.82 199.484L712.316 171.301H720.607L707.893 207.805C707.6 208.586 707.219 209.436 706.75 210.354C706.301 211.271 705.695 212.141 704.934 212.961C704.172 213.801 703.215 214.484 702.062 215.012C700.93 215.539 699.553 215.803 697.932 215.803C697.229 215.803 696.604 215.754 696.057 215.656C695.51 215.559 694.934 215.432 694.328 215.275V209.475C694.523 209.494 694.748 209.504 695.002 209.504C695.275 209.523 695.51 209.533 695.705 209.533C696.838 209.533 697.775 209.396 698.518 209.123C699.26 208.869 699.855 208.449 700.305 207.863C700.773 207.297 701.164 206.555 701.477 205.637L703.82 199.484ZM699.631 171.301L706.809 194.65L708.068 202.824L702.736 203.791L691.281 171.301H699.631ZM754.885 194.65L765.52 160.344H774.455L759.396 203H753.449L754.885 194.65ZM745.07 160.344L755.646 194.65L757.17 203H751.164L736.164 160.344H745.07ZM795.256 187.443H784.27V181.115H795.256C797.053 181.115 798.508 180.822 799.621 180.236C800.754 179.631 801.584 178.811 802.111 177.775C802.639 176.721 802.902 175.52 802.902 174.172C802.902 172.863 802.639 171.643 802.111 170.51C801.584 169.377 800.754 168.459 799.621 167.756C798.508 167.053 797.053 166.701 795.256 166.701H786.906V203H778.85V160.344H795.256C798.576 160.344 801.408 160.939 803.752 162.131C806.115 163.303 807.912 164.934 809.143 167.023C810.393 169.094 811.018 171.457 811.018 174.113C811.018 176.867 810.393 179.24 809.143 181.232C807.912 183.225 806.115 184.758 803.752 185.832C801.408 186.906 798.576 187.443 795.256 187.443ZM851.623 160.344V203H843.537L825.402 173.41V203H817.346V160.344H825.402L843.596 189.963V160.344H851.623Z" fill="white"/>
<path d="M576.379 238.008H579.082V259.673C579.082 262.075 578.576 264.075 577.565 265.671C576.555 267.268 575.192 268.462 573.479 269.253C571.779 270.044 569.897 270.439 567.832 270.439C565.708 270.439 563.796 270.044 562.097 269.253C560.397 268.462 559.05 267.268 558.054 265.671C557.072 264.075 556.582 262.075 556.582 259.673V238.008H559.262V259.673C559.262 261.533 559.628 263.093 560.361 264.353C561.093 265.613 562.104 266.558 563.393 267.188C564.682 267.817 566.162 268.132 567.832 268.132C569.487 268.132 570.959 267.817 572.248 267.188C573.537 266.558 574.548 265.613 575.28 264.353C576.013 263.093 576.379 261.533 576.379 259.673V238.008ZM588.991 236.25V270H586.376V236.25H588.991ZM605.163 246.226V248.379H593.254V246.226H605.163ZM597.626 240.117H600.241V264.221C600.241 265.32 600.388 266.147 600.681 266.704C600.974 267.261 601.354 267.634 601.823 267.825C602.292 268.015 602.797 268.11 603.339 268.11C603.735 268.11 604.116 268.088 604.482 268.044C604.848 267.986 605.178 267.927 605.471 267.869L605.581 270.088C605.258 270.19 604.841 270.271 604.328 270.33C603.815 270.403 603.303 270.439 602.79 270.439C601.779 270.439 600.886 270.256 600.109 269.89C599.333 269.509 598.725 268.865 598.286 267.957C597.846 267.034 597.626 265.781 597.626 264.199V240.117ZM613.293 250.159V270H610.678V246.226H613.227L613.293 250.159ZM621.708 246.05L621.643 248.467C621.35 248.423 621.064 248.386 620.786 248.357C620.507 248.328 620.207 248.313 619.885 248.313C618.742 248.313 617.739 248.525 616.875 248.95C616.025 249.36 615.307 249.939 614.721 250.686C614.135 251.418 613.688 252.283 613.381 253.279C613.073 254.26 612.897 255.315 612.854 256.443L611.887 256.816C611.887 255.264 612.048 253.821 612.37 252.488C612.692 251.155 613.183 249.99 613.842 248.994C614.516 247.983 615.358 247.2 616.369 246.643C617.395 246.072 618.596 245.786 619.973 245.786C620.31 245.786 620.639 245.815 620.961 245.874C621.298 245.918 621.547 245.977 621.708 246.05ZM639.418 265.737V253.477C639.418 252.349 639.184 251.375 638.715 250.554C638.247 249.734 637.558 249.104 636.65 248.665C635.742 248.225 634.621 248.005 633.288 248.005C632.058 248.005 630.959 248.225 629.992 248.665C629.04 249.089 628.286 249.668 627.729 250.4C627.187 251.118 626.916 251.917 626.916 252.795L624.279 252.773C624.279 251.88 624.499 251.016 624.938 250.181C625.378 249.346 626 248.599 626.806 247.939C627.612 247.28 628.571 246.76 629.685 246.379C630.812 245.984 632.05 245.786 633.398 245.786C635.097 245.786 636.591 246.072 637.88 246.643C639.184 247.214 640.202 248.071 640.935 249.214C641.667 250.356 642.033 251.792 642.033 253.521V265.012C642.033 265.833 642.092 266.682 642.209 267.561C642.341 268.44 642.524 269.165 642.758 269.736V270H639.968C639.792 269.473 639.653 268.813 639.55 268.022C639.462 267.217 639.418 266.455 639.418 265.737ZM640.034 256.157L640.078 258.179H634.914C633.566 258.179 632.358 258.303 631.289 258.552C630.234 258.787 629.34 259.138 628.608 259.607C627.875 260.061 627.312 260.61 626.916 261.255C626.535 261.899 626.345 262.632 626.345 263.452C626.345 264.302 626.557 265.078 626.982 265.781C627.421 266.484 628.037 267.048 628.828 267.473C629.633 267.883 630.585 268.088 631.684 268.088C633.149 268.088 634.438 267.817 635.551 267.275C636.679 266.733 637.609 266.023 638.342 265.144C639.074 264.265 639.565 263.306 639.814 262.266L640.957 263.782C640.766 264.514 640.415 265.269 639.902 266.045C639.404 266.807 638.752 267.524 637.946 268.198C637.141 268.857 636.188 269.399 635.09 269.824C634.006 270.234 632.775 270.439 631.398 270.439C629.846 270.439 628.491 270.146 627.333 269.561C626.191 268.975 625.297 268.176 624.653 267.166C624.023 266.14 623.708 264.983 623.708 263.694C623.708 262.522 623.957 261.475 624.455 260.552C624.953 259.614 625.671 258.823 626.608 258.179C627.561 257.52 628.703 257.021 630.036 256.685C631.384 256.333 632.893 256.157 634.562 256.157H640.034ZM657.26 254.751V257.014H646.735V254.751H657.26ZM666.511 270H663.896V243.281C663.896 241.655 664.174 240.286 664.731 239.172C665.302 238.059 666.108 237.217 667.148 236.646C668.203 236.074 669.455 235.789 670.905 235.789C671.359 235.789 671.828 235.818 672.312 235.876C672.795 235.92 673.264 236.016 673.718 236.162L673.52 238.381C673.154 238.279 672.78 238.213 672.399 238.184C672.033 238.14 671.601 238.118 671.103 238.118C670.151 238.118 669.331 238.323 668.642 238.733C667.954 239.128 667.426 239.707 667.06 240.469C666.694 241.23 666.511 242.168 666.511 243.281V270ZM672.18 246.226V248.379H659.963V246.226H672.18ZM691.362 265.737V253.477C691.362 252.349 691.127 251.375 690.659 250.554C690.19 249.734 689.501 249.104 688.593 248.665C687.685 248.225 686.564 248.005 685.231 248.005C684.001 248.005 682.902 248.225 681.936 248.665C680.983 249.089 680.229 249.668 679.672 250.4C679.13 251.118 678.859 251.917 678.859 252.795L676.223 252.773C676.223 251.88 676.442 251.016 676.882 250.181C677.321 249.346 677.944 248.599 678.75 247.939C679.555 247.28 680.515 246.76 681.628 246.379C682.756 245.984 683.994 245.786 685.341 245.786C687.041 245.786 688.535 246.072 689.824 246.643C691.127 247.214 692.146 248.071 692.878 249.214C693.61 250.356 693.977 251.792 693.977 253.521V265.012C693.977 265.833 694.035 266.682 694.152 267.561C694.284 268.44 694.467 269.165 694.702 269.736V270H691.911C691.735 269.473 691.596 268.813 691.494 268.022C691.406 267.217 691.362 266.455 691.362 265.737ZM691.977 256.157L692.021 258.179H686.857C685.51 258.179 684.301 258.303 683.232 258.552C682.177 258.787 681.284 259.138 680.551 259.607C679.819 260.061 679.255 260.61 678.859 261.255C678.479 261.899 678.288 262.632 678.288 263.452C678.288 264.302 678.5 265.078 678.925 265.781C679.365 266.484 679.98 267.048 680.771 267.473C681.577 267.883 682.529 268.088 683.627 268.088C685.092 268.088 686.381 267.817 687.495 267.275C688.623 266.733 689.553 266.023 690.285 265.144C691.018 264.265 691.508 263.306 691.757 262.266L692.9 263.782C692.709 264.514 692.358 265.269 691.845 266.045C691.347 266.807 690.695 267.524 689.89 268.198C689.084 268.857 688.132 269.399 687.033 269.824C685.949 270.234 684.719 270.439 683.342 270.439C681.789 270.439 680.434 270.146 679.277 269.561C678.134 268.975 677.241 268.176 676.596 267.166C675.966 266.14 675.651 264.983 675.651 263.694C675.651 262.522 675.9 261.475 676.398 260.552C676.896 259.614 677.614 258.823 678.552 258.179C679.504 257.52 680.646 257.021 681.979 256.685C683.327 256.333 684.836 256.157 686.506 256.157H691.977ZM715.268 263.936C715.268 263.291 715.107 262.654 714.785 262.024C714.462 261.394 713.84 260.815 712.917 260.288C712.009 259.761 710.668 259.314 708.896 258.948C707.578 258.655 706.398 258.325 705.358 257.959C704.333 257.593 703.469 257.153 702.766 256.641C702.062 256.128 701.528 255.513 701.162 254.795C700.795 254.077 700.612 253.228 700.612 252.246C700.612 251.367 700.803 250.54 701.184 249.763C701.579 248.972 702.136 248.284 702.854 247.698C703.586 247.097 704.465 246.628 705.49 246.292C706.53 245.955 707.695 245.786 708.984 245.786C710.815 245.786 712.382 246.101 713.686 246.731C715.004 247.346 716.008 248.188 716.696 249.258C717.399 250.327 717.751 251.536 717.751 252.883H715.136C715.136 252.063 714.895 251.287 714.411 250.554C713.942 249.822 713.247 249.221 712.324 248.752C711.416 248.284 710.302 248.049 708.984 248.049C707.622 248.049 706.516 248.254 705.666 248.665C704.816 249.075 704.194 249.595 703.798 250.225C703.417 250.854 703.227 251.506 703.227 252.18C703.227 252.708 703.308 253.191 703.469 253.63C703.645 254.055 703.952 254.451 704.392 254.817C704.846 255.183 705.49 255.527 706.325 255.85C707.16 256.172 708.244 256.487 709.577 256.794C711.496 257.219 713.063 257.739 714.279 258.354C715.51 258.955 716.418 259.702 717.004 260.596C717.59 261.475 717.883 262.544 717.883 263.804C717.883 264.785 717.678 265.686 717.268 266.506C716.857 267.312 716.264 268.008 715.488 268.594C714.726 269.18 713.803 269.634 712.719 269.956C711.65 270.278 710.449 270.439 709.116 270.439C707.109 270.439 705.41 270.11 704.018 269.451C702.641 268.777 701.594 267.898 700.876 266.814C700.173 265.715 699.821 264.551 699.821 263.32H702.436C702.524 264.551 702.912 265.525 703.601 266.243C704.289 266.946 705.131 267.444 706.127 267.737C707.138 268.03 708.134 268.176 709.116 268.176C710.463 268.176 711.591 267.979 712.5 267.583C713.408 267.188 714.096 266.667 714.565 266.023C715.034 265.378 715.268 264.683 715.268 263.936ZM732.824 246.226V248.379H720.915V246.226H732.824ZM725.288 240.117H727.902V264.221C727.902 265.32 728.049 266.147 728.342 266.704C728.635 267.261 729.016 267.634 729.484 267.825C729.953 268.015 730.458 268.11 731 268.11C731.396 268.11 731.777 268.088 732.143 268.044C732.509 267.986 732.839 267.927 733.132 267.869L733.242 270.088C732.919 270.19 732.502 270.271 731.989 270.33C731.477 270.403 730.964 270.439 730.451 270.439C729.44 270.439 728.547 270.256 727.771 269.89C726.994 269.509 726.386 268.865 725.947 267.957C725.507 267.034 725.288 265.781 725.288 264.199V240.117ZM740.866 265.847V268.923C740.866 270.271 740.588 271.567 740.031 272.812C739.475 274.072 738.72 275.134 737.768 275.999L736.23 274.856C736.684 274.241 737.065 273.625 737.373 273.01C737.68 272.41 737.907 271.78 738.054 271.121C738.215 270.461 738.295 269.751 738.295 268.989V265.847H740.866ZM772.221 263.936C772.221 263.291 772.06 262.654 771.738 262.024C771.416 261.394 770.793 260.815 769.87 260.288C768.962 259.761 767.622 259.314 765.849 258.948C764.531 258.655 763.352 258.325 762.312 257.959C761.286 257.593 760.422 257.153 759.719 256.641C759.016 256.128 758.481 255.513 758.115 254.795C757.749 254.077 757.565 253.228 757.565 252.246C757.565 251.367 757.756 250.54 758.137 249.763C758.532 248.972 759.089 248.284 759.807 247.698C760.539 247.097 761.418 246.628 762.443 246.292C763.483 245.955 764.648 245.786 765.937 245.786C767.768 245.786 769.335 246.101 770.639 246.731C771.958 247.346 772.961 248.188 773.649 249.258C774.353 250.327 774.704 251.536 774.704 252.883H772.089C772.089 252.063 771.848 251.287 771.364 250.554C770.896 249.822 770.2 249.221 769.277 248.752C768.369 248.284 767.255 248.049 765.937 248.049C764.575 248.049 763.469 248.254 762.619 248.665C761.77 249.075 761.147 249.595 760.751 250.225C760.371 250.854 760.18 251.506 760.18 252.18C760.18 252.708 760.261 253.191 760.422 253.63C760.598 254.055 760.905 254.451 761.345 254.817C761.799 255.183 762.443 255.527 763.278 255.85C764.113 256.172 765.197 256.487 766.53 256.794C768.449 257.219 770.017 257.739 771.232 258.354C772.463 258.955 773.371 259.702 773.957 260.596C774.543 261.475 774.836 262.544 774.836 263.804C774.836 264.785 774.631 265.686 774.221 266.506C773.811 267.312 773.217 268.008 772.441 268.594C771.679 269.18 770.756 269.634 769.672 269.956C768.603 270.278 767.402 270.439 766.069 270.439C764.062 270.439 762.363 270.11 760.971 269.451C759.594 268.777 758.547 267.898 757.829 266.814C757.126 265.715 756.774 264.551 756.774 263.32H759.389C759.477 264.551 759.865 265.525 760.554 266.243C761.242 266.946 762.084 267.444 763.081 267.737C764.091 268.03 765.087 268.176 766.069 268.176C767.417 268.176 768.544 267.979 769.453 267.583C770.361 267.188 771.049 266.667 771.518 266.023C771.987 265.378 772.221 264.683 772.221 263.936ZM789.975 270.439C788.422 270.439 786.994 270.154 785.69 269.583C784.401 269.011 783.273 268.206 782.307 267.166C781.354 266.125 780.615 264.895 780.087 263.474C779.575 262.039 779.318 260.471 779.318 258.772V257.827C779.318 255.996 779.589 254.341 780.131 252.861C780.673 251.382 781.42 250.115 782.373 249.06C783.325 248.005 784.409 247.2 785.625 246.643C786.855 246.072 788.144 245.786 789.492 245.786C791 245.786 792.341 246.057 793.513 246.599C794.685 247.126 795.666 247.881 796.457 248.862C797.263 249.829 797.871 250.979 798.281 252.312C798.691 253.63 798.896 255.088 798.896 256.685V258.289H780.9V256.047H796.281V255.74C796.252 254.407 795.981 253.162 795.468 252.004C794.97 250.833 794.223 249.88 793.227 249.148C792.231 248.416 790.986 248.049 789.492 248.049C788.378 248.049 787.353 248.284 786.416 248.752C785.493 249.221 784.694 249.895 784.021 250.774C783.361 251.638 782.849 252.671 782.482 253.872C782.131 255.059 781.955 256.377 781.955 257.827V258.772C781.955 260.09 782.146 261.321 782.526 262.463C782.922 263.591 783.479 264.587 784.196 265.452C784.929 266.316 785.793 266.99 786.789 267.473C787.785 267.957 788.884 268.198 790.085 268.198C791.491 268.198 792.736 267.942 793.82 267.429C794.904 266.902 795.878 266.074 796.743 264.946L798.391 266.221C797.878 266.982 797.233 267.686 796.457 268.33C795.695 268.975 794.78 269.487 793.71 269.868C792.641 270.249 791.396 270.439 789.975 270.439ZM812.849 268.176C813.962 268.176 815.002 267.971 815.969 267.561C816.95 267.136 817.756 266.514 818.386 265.693C819.03 264.858 819.396 263.84 819.484 262.639H821.989C821.916 264.148 821.455 265.496 820.605 266.682C819.77 267.854 818.671 268.777 817.309 269.451C815.961 270.11 814.475 270.439 812.849 270.439C811.193 270.439 809.729 270.139 808.454 269.539C807.194 268.938 806.14 268.103 805.29 267.034C804.44 265.95 803.796 264.69 803.356 263.254C802.932 261.804 802.719 260.244 802.719 258.574V257.651C802.719 255.981 802.932 254.429 803.356 252.993C803.796 251.543 804.44 250.283 805.29 249.214C806.14 248.13 807.194 247.288 808.454 246.687C809.714 246.086 811.171 245.786 812.827 245.786C814.526 245.786 816.049 246.13 817.397 246.819C818.759 247.507 819.843 248.481 820.649 249.741C821.469 251.001 821.916 252.495 821.989 254.224H819.484C819.411 252.949 819.074 251.851 818.474 250.928C817.873 250.005 817.082 249.294 816.101 248.796C815.119 248.298 814.028 248.049 812.827 248.049C811.479 248.049 810.329 248.313 809.377 248.84C808.425 249.353 807.648 250.063 807.048 250.972C806.462 251.865 806.03 252.891 805.751 254.048C805.473 255.19 805.334 256.392 805.334 257.651V258.574C805.334 259.849 805.466 261.064 805.729 262.222C806.008 263.364 806.44 264.382 807.026 265.276C807.626 266.169 808.403 266.88 809.355 267.407C810.322 267.92 811.486 268.176 812.849 268.176ZM842.512 264.507V246.226H845.148V270H842.622L842.512 264.507ZM842.995 260.112L844.357 260.068C844.357 261.562 844.182 262.939 843.83 264.199C843.479 265.459 842.929 266.558 842.182 267.495C841.435 268.433 840.468 269.158 839.282 269.67C838.095 270.183 836.667 270.439 834.997 270.439C833.84 270.439 832.778 270.278 831.811 269.956C830.859 269.619 830.039 269.092 829.35 268.374C828.662 267.656 828.127 266.726 827.746 265.583C827.38 264.441 827.197 263.057 827.197 261.431V246.226H829.812V261.475C829.812 262.749 829.951 263.811 830.229 264.661C830.522 265.51 830.917 266.191 831.416 266.704C831.928 267.217 832.514 267.583 833.173 267.803C833.833 268.022 834.543 268.132 835.305 268.132C837.238 268.132 838.762 267.759 839.875 267.012C841.003 266.265 841.801 265.283 842.27 264.067C842.753 262.837 842.995 261.519 842.995 260.112ZM854.641 250.159V270H852.026V246.226H854.575L854.641 250.159ZM863.056 246.05L862.99 248.467C862.697 248.423 862.412 248.386 862.133 248.357C861.855 248.328 861.555 248.313 861.232 248.313C860.09 248.313 859.086 248.525 858.222 248.95C857.373 249.36 856.655 249.939 856.069 250.686C855.483 251.418 855.036 252.283 854.729 253.279C854.421 254.26 854.245 255.315 854.201 256.443L853.234 256.816C853.234 255.264 853.396 253.821 853.718 252.488C854.04 251.155 854.531 249.99 855.19 248.994C855.864 247.983 856.706 247.2 857.717 246.643C858.742 246.072 859.943 245.786 861.32 245.786C861.657 245.786 861.987 245.815 862.309 245.874C862.646 245.918 862.895 245.977 863.056 246.05ZM875.932 270.439C874.379 270.439 872.951 270.154 871.647 269.583C870.358 269.011 869.23 268.206 868.264 267.166C867.312 266.125 866.572 264.895 866.044 263.474C865.532 262.039 865.275 260.471 865.275 258.772V257.827C865.275 255.996 865.546 254.341 866.088 252.861C866.63 251.382 867.377 250.115 868.33 249.06C869.282 248.005 870.366 247.2 871.582 246.643C872.812 246.072 874.101 245.786 875.449 245.786C876.958 245.786 878.298 246.057 879.47 246.599C880.642 247.126 881.623 247.881 882.414 248.862C883.22 249.829 883.828 250.979 884.238 252.312C884.648 253.63 884.853 255.088 884.853 256.685V258.289H866.857V256.047H882.238V255.74C882.209 254.407 881.938 253.162 881.425 252.004C880.927 250.833 880.18 249.88 879.184 249.148C878.188 248.416 876.943 248.049 875.449 248.049C874.335 248.049 873.31 248.284 872.373 248.752C871.45 249.221 870.651 249.895 869.978 250.774C869.318 251.638 868.806 252.671 868.439 253.872C868.088 255.059 867.912 256.377 867.912 257.827V258.772C867.912 260.09 868.103 261.321 868.483 262.463C868.879 263.591 869.436 264.587 870.153 265.452C870.886 266.316 871.75 266.99 872.746 267.473C873.742 267.957 874.841 268.198 876.042 268.198C877.448 268.198 878.693 267.942 879.777 267.429C880.861 266.902 881.835 266.074 882.7 264.946L884.348 266.221C883.835 266.982 883.19 267.686 882.414 268.33C881.652 268.975 880.737 269.487 879.667 269.868C878.598 270.249 877.353 270.439 875.932 270.439ZM892.565 265.847V268.923C892.565 270.271 892.287 271.567 891.73 272.812C891.174 274.072 890.419 275.134 889.467 275.999L887.929 274.856C888.383 274.241 888.764 273.625 889.072 273.01C889.379 272.41 889.606 271.78 889.753 271.121C889.914 270.461 889.995 269.751 889.995 268.989V265.847H892.565ZM924.14 265.737V253.477C924.14 252.349 923.906 251.375 923.437 250.554C922.968 249.734 922.28 249.104 921.372 248.665C920.463 248.225 919.343 248.005 918.01 248.005C916.779 248.005 915.681 248.225 914.714 248.665C913.762 249.089 913.007 249.668 912.451 250.4C911.909 251.118 911.638 251.917 911.638 252.795L909.001 252.773C909.001 251.88 909.221 251.016 909.66 250.181C910.1 249.346 910.722 248.599 911.528 247.939C912.333 247.28 913.293 246.76 914.406 246.379C915.534 245.984 916.772 245.786 918.12 245.786C919.819 245.786 921.313 246.072 922.602 246.643C923.906 247.214 924.924 248.071 925.656 249.214C926.389 250.356 926.755 251.792 926.755 253.521V265.012C926.755 265.833 926.813 266.682 926.931 267.561C927.062 268.44 927.246 269.165 927.48 269.736V270H924.689C924.514 269.473 924.375 268.813 924.272 268.022C924.184 267.217 924.14 266.455 924.14 265.737ZM924.755 256.157L924.799 258.179H919.636C918.288 258.179 917.08 258.303 916.01 258.552C914.956 258.787 914.062 259.138 913.33 259.607C912.597 260.061 912.033 260.61 911.638 261.255C911.257 261.899 911.066 262.632 911.066 263.452C911.066 264.302 911.279 265.078 911.704 265.781C912.143 266.484 912.758 267.048 913.549 267.473C914.355 267.883 915.307 268.088 916.406 268.088C917.871 268.088 919.16 267.817 920.273 267.275C921.401 266.733 922.331 266.023 923.063 265.144C923.796 264.265 924.287 263.306 924.536 262.266L925.678 263.782C925.488 264.514 925.136 265.269 924.624 266.045C924.125 266.807 923.474 267.524 922.668 268.198C921.862 268.857 920.91 269.399 919.812 269.824C918.728 270.234 917.497 270.439 916.12 270.439C914.567 270.439 913.212 270.146 912.055 269.561C910.913 268.975 910.019 268.176 909.375 267.166C908.745 266.14 908.43 264.983 908.43 263.694C908.43 262.522 908.679 261.475 909.177 260.552C909.675 259.614 910.393 258.823 911.33 258.179C912.282 257.52 913.425 257.021 914.758 256.685C916.105 256.333 917.614 256.157 919.284 256.157H924.755ZM936.423 251.301V270H933.808V246.226H936.313L936.423 251.301ZM935.83 256.641L934.665 255.981C934.753 254.575 935.039 253.257 935.522 252.026C936.005 250.796 936.657 249.712 937.478 248.774C938.312 247.837 939.287 247.104 940.4 246.577C941.528 246.05 942.773 245.786 944.135 245.786C945.322 245.786 946.384 245.947 947.321 246.27C948.259 246.592 949.057 247.104 949.716 247.808C950.375 248.511 950.874 249.412 951.21 250.51C951.562 251.609 951.738 252.949 951.738 254.531V270H949.101V254.509C949.101 252.869 948.874 251.587 948.42 250.664C947.966 249.727 947.321 249.06 946.486 248.665C945.651 248.269 944.663 248.071 943.52 248.071C942.26 248.071 941.154 248.35 940.202 248.906C939.265 249.448 938.474 250.159 937.829 251.038C937.199 251.902 936.716 252.832 936.379 253.828C936.042 254.81 935.859 255.747 935.83 256.641ZM973.996 265.386V236.25H976.633V270H974.172L973.996 265.386ZM957.495 258.354V257.893C957.495 256.047 957.707 254.385 958.132 252.905C958.557 251.411 959.165 250.137 959.956 249.082C960.761 248.013 961.728 247.2 962.856 246.643C963.984 246.072 965.258 245.786 966.679 245.786C968.071 245.786 969.301 246.013 970.371 246.467C971.44 246.921 972.355 247.573 973.117 248.423C973.894 249.272 974.516 250.283 974.985 251.455C975.468 252.627 975.82 253.931 976.04 255.366V261.233C975.864 262.581 975.542 263.818 975.073 264.946C974.604 266.06 973.981 267.034 973.205 267.869C972.429 268.689 971.491 269.326 970.393 269.78C969.309 270.22 968.056 270.439 966.635 270.439C965.229 270.439 963.962 270.146 962.834 269.561C961.706 268.975 960.747 268.147 959.956 267.078C959.165 265.994 958.557 264.712 958.132 263.232C957.707 261.753 957.495 260.127 957.495 258.354ZM960.131 257.893V258.354C960.131 259.746 960.271 261.035 960.549 262.222C960.827 263.408 961.252 264.441 961.823 265.32C962.395 266.199 963.12 266.887 963.999 267.385C964.877 267.883 965.917 268.132 967.119 268.132C968.627 268.132 969.895 267.847 970.92 267.275C971.945 266.689 972.766 265.92 973.381 264.968C973.996 264.001 974.443 262.947 974.721 261.804V254.971C974.545 254.194 974.289 253.403 973.952 252.598C973.615 251.792 973.154 251.052 972.568 250.378C971.997 249.69 971.264 249.141 970.371 248.73C969.492 248.306 968.422 248.093 967.163 248.093C965.947 248.093 964.899 248.342 964.021 248.84C963.142 249.338 962.409 250.034 961.823 250.928C961.252 251.807 960.827 252.839 960.549 254.026C960.271 255.212 960.131 256.501 960.131 257.893ZM999.045 270H996.43V243.281C996.43 241.655 996.708 240.286 997.265 239.172C997.836 238.059 998.642 237.217 999.682 236.646C1000.74 236.074 1001.99 235.789 1003.44 235.789C1003.89 235.789 1004.36 235.818 1004.85 235.876C1005.33 235.92 1005.8 236.016 1006.25 236.162L1006.05 238.381C1005.69 238.279 1005.31 238.213 1004.93 238.184C1004.57 238.14 1004.14 238.118 1003.64 238.118C1002.69 238.118 1001.86 238.323 1001.18 238.733C1000.49 239.128 999.96 239.707 999.594 240.469C999.228 241.23 999.045 242.168 999.045 243.281V270ZM1004.71 246.226V248.379H992.497V246.226H1004.71ZM1012.05 250.159V270H1009.44V246.226H1011.99L1012.05 250.159ZM1020.47 246.05L1020.4 248.467C1020.11 248.423 1019.82 248.386 1019.55 248.357C1019.27 248.328 1018.97 248.313 1018.64 248.313C1017.5 248.313 1016.5 248.525 1015.63 248.95C1014.78 249.36 1014.07 249.939 1013.48 250.686C1012.9 251.418 1012.45 252.283 1012.14 253.279C1011.83 254.26 1011.66 255.315 1011.61 256.443L1010.65 256.816C1010.65 255.264 1010.81 253.821 1011.13 252.488C1011.45 251.155 1011.94 249.99 1012.6 248.994C1013.28 247.983 1014.12 247.2 1015.13 246.643C1016.15 246.072 1017.36 245.786 1018.73 245.786C1019.07 245.786 1019.4 245.815 1019.72 245.874C1020.06 245.918 1020.31 245.977 1020.47 246.05ZM1033.34 270.439C1031.79 270.439 1030.36 270.154 1029.06 269.583C1027.77 269.011 1026.64 268.206 1025.68 267.166C1024.72 266.125 1023.98 264.895 1023.46 263.474C1022.94 262.039 1022.69 260.471 1022.69 258.772V257.827C1022.69 255.996 1022.96 254.341 1023.5 252.861C1024.04 251.382 1024.79 250.115 1025.74 249.06C1026.69 248.005 1027.78 247.2 1028.99 246.643C1030.22 246.072 1031.51 245.786 1032.86 245.786C1034.37 245.786 1035.71 246.057 1036.88 246.599C1038.05 247.126 1039.04 247.881 1039.83 248.862C1040.63 249.829 1041.24 250.979 1041.65 252.312C1042.06 253.63 1042.27 255.088 1042.27 256.685V258.289H1024.27V256.047H1039.65V255.74C1039.62 254.407 1039.35 253.162 1038.84 252.004C1038.34 250.833 1037.59 249.88 1036.6 249.148C1035.6 248.416 1034.35 248.049 1032.86 248.049C1031.75 248.049 1030.72 248.284 1029.78 248.752C1028.86 249.221 1028.06 249.895 1027.39 250.774C1026.73 251.638 1026.22 252.671 1025.85 253.872C1025.5 255.059 1025.32 256.377 1025.32 257.827V258.772C1025.32 260.09 1025.51 261.321 1025.9 262.463C1026.29 263.591 1026.85 264.587 1027.57 265.452C1028.3 266.316 1029.16 266.99 1030.16 267.473C1031.15 267.957 1032.25 268.198 1033.45 268.198C1034.86 268.198 1036.11 267.942 1037.19 267.429C1038.27 266.902 1039.25 266.074 1040.11 264.946L1041.76 266.221C1041.25 266.982 1040.6 267.686 1039.83 268.33C1039.06 268.975 1038.15 269.487 1037.08 269.868C1036.01 270.249 1034.77 270.439 1033.34 270.439ZM1056.64 270.439C1055.08 270.439 1053.65 270.154 1052.35 269.583C1051.06 269.011 1049.93 268.206 1048.97 267.166C1048.01 266.125 1047.27 264.895 1046.75 263.474C1046.23 262.039 1045.98 260.471 1045.98 258.772V257.827C1045.98 255.996 1046.25 254.341 1046.79 252.861C1047.33 251.382 1048.08 250.115 1049.03 249.06C1049.98 248.005 1051.07 247.2 1052.28 246.643C1053.52 246.072 1054.8 245.786 1056.15 245.786C1057.66 245.786 1059 246.057 1060.17 246.599C1061.34 247.126 1062.33 247.881 1063.12 248.862C1063.92 249.829 1064.53 250.979 1064.94 252.312C1065.35 253.63 1065.56 255.088 1065.56 256.685V258.289H1047.56V256.047H1062.94V255.74C1062.91 254.407 1062.64 253.162 1062.13 252.004C1061.63 250.833 1060.88 249.88 1059.89 249.148C1058.89 248.416 1057.65 248.049 1056.15 248.049C1055.04 248.049 1054.01 248.284 1053.08 248.752C1052.15 249.221 1051.35 249.895 1050.68 250.774C1050.02 251.638 1049.51 252.671 1049.14 253.872C1048.79 255.059 1048.62 256.377 1048.62 257.827V258.772C1048.62 260.09 1048.81 261.321 1049.19 262.463C1049.58 263.591 1050.14 264.587 1050.86 265.452C1051.59 266.316 1052.45 266.99 1053.45 267.473C1054.45 267.957 1055.54 268.198 1056.75 268.198C1058.15 268.198 1059.4 267.942 1060.48 267.429C1061.56 266.902 1062.54 266.074 1063.4 264.946L1065.05 266.221C1064.54 266.982 1063.89 267.686 1063.12 268.33C1062.36 268.975 1061.44 269.487 1060.37 269.868C1059.3 270.249 1058.06 270.439 1056.64 270.439ZM1092.34 266.023L1102.43 238.008H1105.37L1093.46 270H1091.29L1092.34 266.023ZM1081.93 238.008L1091.97 266.023L1093.07 270H1090.87L1078.98 238.008H1081.93ZM1120.99 256.97H1111.87V254.663H1120.99C1122.9 254.663 1124.44 254.355 1125.63 253.74C1126.83 253.11 1127.7 252.261 1128.24 251.191C1128.8 250.122 1129.08 248.921 1129.08 247.588C1129.08 246.284 1128.8 245.083 1128.24 243.984C1127.7 242.886 1126.83 242.007 1125.63 241.348C1124.44 240.674 1122.9 240.337 1120.99 240.337H1112.82V270H1110.12V238.008H1120.99C1123.34 238.008 1125.31 238.411 1126.9 239.216C1128.52 240.022 1129.73 241.143 1130.55 242.578C1131.37 244.014 1131.78 245.669 1131.78 247.544C1131.78 249.507 1131.37 251.199 1130.55 252.62C1129.73 254.026 1128.52 255.103 1126.93 255.85C1125.33 256.597 1123.35 256.97 1120.99 256.97ZM1161.66 238.008V270H1158.94L1140.55 242.666V270H1137.85V238.008H1140.55L1158.98 265.342V238.008H1161.66ZM1168.98 268.396C1168.98 267.883 1169.14 267.451 1169.46 267.1C1169.8 266.733 1170.26 266.55 1170.83 266.55C1171.41 266.55 1171.87 266.733 1172.21 267.1C1172.55 267.451 1172.72 267.883 1172.72 268.396C1172.72 268.894 1172.55 269.319 1172.21 269.67C1171.87 270.022 1171.41 270.198 1170.83 270.198C1170.26 270.198 1169.8 270.022 1169.46 269.67C1169.14 269.319 1168.98 268.894 1168.98 268.396ZM1211.48 267.693V270H1193.48V267.693H1211.48ZM1194.29 238.008V270H1191.59V238.008H1194.29ZM1209.24 252.356V254.663H1193.48V252.356H1209.24ZM1211.37 238.008V240.337H1193.48V238.008H1211.37ZM1219.21 251.301V270H1216.6V246.226H1219.1L1219.21 251.301ZM1218.62 256.641L1217.45 255.981C1217.54 254.575 1217.83 253.257 1218.31 252.026C1218.79 250.796 1219.45 249.712 1220.27 248.774C1221.1 247.837 1222.07 247.104 1223.19 246.577C1224.32 246.05 1225.56 245.786 1226.92 245.786C1228.11 245.786 1229.17 245.947 1230.11 246.27C1231.05 246.592 1231.85 247.104 1232.5 247.808C1233.16 248.511 1233.66 249.412 1234 250.51C1234.35 251.609 1234.53 252.949 1234.53 254.531V270H1231.89V254.509C1231.89 252.869 1231.66 251.587 1231.21 250.664C1230.75 249.727 1230.11 249.06 1229.27 248.665C1228.44 248.269 1227.45 248.071 1226.31 248.071C1225.05 248.071 1223.94 248.35 1222.99 248.906C1222.05 249.448 1221.26 250.159 1220.62 251.038C1219.99 251.902 1219.5 252.832 1219.17 253.828C1218.83 254.81 1218.65 255.747 1218.62 256.641ZM1241.54 246.226H1244.17V272.834C1244.17 274.285 1243.93 275.515 1243.45 276.526C1242.96 277.537 1242.26 278.298 1241.34 278.811C1240.41 279.338 1239.28 279.602 1237.93 279.602C1237.57 279.602 1237.17 279.565 1236.75 279.492C1236.32 279.419 1235.93 279.316 1235.58 279.185L1235.62 276.987C1235.89 277.061 1236.2 277.126 1236.57 277.185C1236.92 277.258 1237.27 277.295 1237.6 277.295C1238.45 277.295 1239.17 277.126 1239.76 276.79C1240.34 276.467 1240.78 275.977 1241.07 275.317C1241.38 274.658 1241.54 273.831 1241.54 272.834V246.226ZM1241.07 239.348C1241.07 238.85 1241.23 238.433 1241.56 238.096C1241.88 237.744 1242.32 237.568 1242.88 237.568C1243.43 237.568 1243.87 237.744 1244.19 238.096C1244.53 238.433 1244.7 238.85 1244.7 239.348C1244.7 239.832 1244.53 240.249 1244.19 240.601C1243.87 240.938 1243.43 241.106 1242.88 241.106C1242.32 241.106 1241.88 240.938 1241.56 240.601C1241.23 240.249 1241.07 239.832 1241.07 239.348ZM1250.17 258.486V257.761C1250.17 256.033 1250.42 254.436 1250.92 252.971C1251.42 251.506 1252.13 250.239 1253.05 249.17C1253.99 248.101 1255.11 247.273 1256.41 246.687C1257.71 246.086 1259.16 245.786 1260.76 245.786C1262.37 245.786 1263.83 246.086 1265.13 246.687C1266.44 247.273 1267.56 248.101 1268.5 249.17C1269.43 250.239 1270.15 251.506 1270.65 252.971C1271.15 254.436 1271.4 256.033 1271.4 257.761V258.486C1271.4 260.215 1271.15 261.812 1270.65 263.276C1270.15 264.727 1269.43 265.986 1268.5 267.056C1267.57 268.125 1266.46 268.96 1265.16 269.561C1263.85 270.146 1262.4 270.439 1260.81 270.439C1259.19 270.439 1257.74 270.146 1256.43 269.561C1255.13 268.96 1254.01 268.125 1253.07 267.056C1252.13 265.986 1251.42 264.727 1250.92 263.276C1250.42 261.812 1250.17 260.215 1250.17 258.486ZM1252.79 257.761V258.486C1252.79 259.79 1252.96 261.028 1253.31 262.2C1253.66 263.357 1254.18 264.39 1254.85 265.298C1255.52 266.191 1256.36 266.895 1257.36 267.407C1258.35 267.92 1259.5 268.176 1260.81 268.176C1262.09 268.176 1263.23 267.92 1264.21 267.407C1265.21 266.895 1266.04 266.191 1266.72 265.298C1267.39 264.39 1267.9 263.357 1268.23 262.2C1268.58 261.028 1268.76 259.79 1268.76 258.486V257.761C1268.76 256.472 1268.58 255.249 1268.23 254.092C1267.9 252.935 1267.38 251.902 1266.69 250.994C1266.02 250.085 1265.19 249.368 1264.19 248.84C1263.19 248.313 1262.05 248.049 1260.76 248.049C1259.47 248.049 1258.33 248.313 1257.33 248.84C1256.35 249.368 1255.52 250.085 1254.83 250.994C1254.15 251.902 1253.64 252.935 1253.29 254.092C1252.95 255.249 1252.79 256.472 1252.79 257.761ZM1283.55 267.627L1290.95 246.226H1293.79L1283.72 273.823C1283.52 274.365 1283.25 274.966 1282.93 275.625C1282.62 276.284 1282.21 276.914 1281.7 277.515C1281.2 278.13 1280.57 278.628 1279.81 279.009C1279.06 279.404 1278.15 279.602 1277.06 279.602C1276.79 279.602 1276.43 279.565 1275.99 279.492C1275.56 279.434 1275.26 279.375 1275.07 279.316L1275.04 277.097C1275.2 277.141 1275.44 277.178 1275.75 277.207C1276.05 277.236 1276.27 277.251 1276.38 277.251C1277.34 277.251 1278.13 277.09 1278.78 276.768C1279.44 276.445 1279.99 275.962 1280.43 275.317C1280.87 274.688 1281.25 273.896 1281.59 272.944L1283.55 267.627ZM1276.63 246.226L1284.21 266.638L1284.91 269.385L1283 270.461L1273.77 246.226H1276.63ZM1307.43 258.486V257.761C1307.43 256.033 1307.68 254.436 1308.18 252.971C1308.68 251.506 1309.39 250.239 1310.31 249.17C1311.25 248.101 1312.37 247.273 1313.67 246.687C1314.98 246.086 1316.43 245.786 1318.02 245.786C1319.63 245.786 1321.09 246.086 1322.39 246.687C1323.7 247.273 1324.82 248.101 1325.76 249.17C1326.69 250.239 1327.41 251.506 1327.91 252.971C1328.41 254.436 1328.66 256.033 1328.66 257.761V258.486C1328.66 260.215 1328.41 261.812 1327.91 263.276C1327.41 264.727 1326.69 265.986 1325.76 267.056C1324.83 268.125 1323.72 268.96 1322.42 269.561C1321.11 270.146 1319.66 270.439 1318.07 270.439C1316.45 270.439 1315 270.146 1313.69 269.561C1312.39 268.96 1311.27 268.125 1310.33 267.056C1309.39 265.986 1308.68 264.727 1308.18 263.276C1307.68 261.812 1307.43 260.215 1307.43 258.486ZM1310.05 257.761V258.486C1310.05 259.79 1310.22 261.028 1310.57 262.2C1310.92 263.357 1311.44 264.39 1312.11 265.298C1312.79 266.191 1313.62 266.895 1314.62 267.407C1315.61 267.92 1316.76 268.176 1318.07 268.176C1319.35 268.176 1320.49 267.92 1321.47 267.407C1322.47 266.895 1323.3 266.191 1323.98 265.298C1324.65 264.39 1325.16 263.357 1325.49 262.2C1325.84 261.028 1326.02 259.79 1326.02 258.486V257.761C1326.02 256.472 1325.84 255.249 1325.49 254.092C1325.16 252.935 1324.64 251.902 1323.95 250.994C1323.28 250.085 1322.45 249.368 1321.45 248.84C1320.45 248.313 1319.31 248.049 1318.02 248.049C1316.73 248.049 1315.59 248.313 1314.59 248.84C1313.61 249.368 1312.78 250.085 1312.09 250.994C1311.42 251.902 1310.9 252.935 1310.55 254.092C1310.21 255.249 1310.05 256.472 1310.05 257.761ZM1336.72 251.301V270H1334.11V246.226H1336.61L1336.72 251.301ZM1336.13 256.641L1334.96 255.981C1335.05 254.575 1335.34 253.257 1335.82 252.026C1336.3 250.796 1336.96 249.712 1337.78 248.774C1338.61 247.837 1339.58 247.104 1340.7 246.577C1341.83 246.05 1343.07 245.786 1344.43 245.786C1345.62 245.786 1346.68 245.947 1347.62 246.27C1348.56 246.592 1349.35 247.104 1350.01 247.808C1350.67 248.511 1351.17 249.412 1351.51 250.51C1351.86 251.609 1352.04 252.949 1352.04 254.531V270H1349.4V254.509C1349.4 252.869 1349.17 251.587 1348.72 250.664C1348.26 249.727 1347.62 249.06 1346.78 248.665C1345.95 248.269 1344.96 248.071 1343.82 248.071C1342.56 248.071 1341.45 248.35 1340.5 248.906C1339.56 249.448 1338.77 250.159 1338.13 251.038C1337.5 251.902 1337.01 252.832 1336.68 253.828C1336.34 254.81 1336.16 255.747 1336.13 256.641ZM1368.03 270.439C1366.48 270.439 1365.05 270.154 1363.75 269.583C1362.46 269.011 1361.33 268.206 1360.36 267.166C1359.41 266.125 1358.67 264.895 1358.14 263.474C1357.63 262.039 1357.38 260.471 1357.38 258.772V257.827C1357.38 255.996 1357.65 254.341 1358.19 252.861C1358.73 251.382 1359.48 250.115 1360.43 249.06C1361.38 248.005 1362.47 247.2 1363.68 246.643C1364.91 246.072 1366.2 245.786 1367.55 245.786C1369.06 245.786 1370.4 246.057 1371.57 246.599C1372.74 247.126 1373.72 247.881 1374.51 248.862C1375.32 249.829 1375.93 250.979 1376.34 252.312C1376.75 253.63 1376.95 255.088 1376.95 256.685V258.289H1358.96V256.047H1374.34V255.74C1374.31 254.407 1374.04 253.162 1373.52 252.004C1373.03 250.833 1372.28 249.88 1371.28 249.148C1370.29 248.416 1369.04 248.049 1367.55 248.049C1366.44 248.049 1365.41 248.284 1364.47 248.752C1363.55 249.221 1362.75 249.895 1362.08 250.774C1361.42 251.638 1360.91 252.671 1360.54 253.872C1360.19 255.059 1360.01 256.377 1360.01 257.827V258.772C1360.01 260.09 1360.2 261.321 1360.58 262.463C1360.98 263.591 1361.54 264.587 1362.25 265.452C1362.99 266.316 1363.85 266.99 1364.85 267.473C1365.84 267.957 1366.94 268.198 1368.14 268.198C1369.55 268.198 1370.79 267.942 1371.88 267.429C1372.96 266.902 1373.94 266.074 1374.8 264.946L1376.45 266.221C1375.93 266.982 1375.29 267.686 1374.51 268.33C1373.75 268.975 1372.84 269.487 1371.77 269.868C1370.7 270.249 1369.45 270.439 1368.03 270.439ZM1390.31 254.751V257.014H1379.79V254.751H1390.31ZM1404.04 246.226V248.379H1392.14V246.226H1404.04ZM1396.51 240.117H1399.12V264.221C1399.12 265.32 1399.27 266.147 1399.56 266.704C1399.86 267.261 1400.24 267.634 1400.71 267.825C1401.17 268.015 1401.68 268.11 1402.22 268.11C1402.62 268.11 1403 268.088 1403.36 268.044C1403.73 267.986 1404.06 267.927 1404.35 267.869L1404.46 270.088C1404.14 270.19 1403.72 270.271 1403.21 270.33C1402.7 270.403 1402.18 270.439 1401.67 270.439C1400.66 270.439 1399.77 270.256 1398.99 269.89C1398.21 269.509 1397.61 268.865 1397.17 267.957C1396.73 267.034 1396.51 265.781 1396.51 264.199V240.117ZM1424.02 265.737V253.477C1424.02 252.349 1423.78 251.375 1423.31 250.554C1422.85 249.734 1422.16 249.104 1421.25 248.665C1420.34 248.225 1419.22 248.005 1417.89 248.005C1416.66 248.005 1415.56 248.225 1414.59 248.665C1413.64 249.089 1412.89 249.668 1412.33 250.4C1411.79 251.118 1411.52 251.917 1411.52 252.795L1408.88 252.773C1408.88 251.88 1409.1 251.016 1409.54 250.181C1409.98 249.346 1410.6 248.599 1411.41 247.939C1412.21 247.28 1413.17 246.76 1414.28 246.379C1415.41 245.984 1416.65 245.786 1418 245.786C1419.7 245.786 1421.19 246.072 1422.48 246.643C1423.78 247.214 1424.8 248.071 1425.53 249.214C1426.27 250.356 1426.63 251.792 1426.63 253.521V265.012C1426.63 265.833 1426.69 266.682 1426.81 267.561C1426.94 268.44 1427.12 269.165 1427.36 269.736V270H1424.57C1424.39 269.473 1424.25 268.813 1424.15 268.022C1424.06 267.217 1424.02 266.455 1424.02 265.737ZM1424.63 256.157L1424.68 258.179H1419.51C1418.17 258.179 1416.96 258.303 1415.89 258.552C1414.83 258.787 1413.94 259.138 1413.21 259.607C1412.48 260.061 1411.91 260.61 1411.52 261.255C1411.13 261.899 1410.94 262.632 1410.94 263.452C1410.94 264.302 1411.16 265.078 1411.58 265.781C1412.02 266.484 1412.64 267.048 1413.43 267.473C1414.23 267.883 1415.19 268.088 1416.28 268.088C1417.75 268.088 1419.04 267.817 1420.15 267.275C1421.28 266.733 1422.21 266.023 1422.94 265.144C1423.67 264.265 1424.16 263.306 1424.41 262.266L1425.56 263.782C1425.37 264.514 1425.01 265.269 1424.5 266.045C1424 266.807 1423.35 267.524 1422.55 268.198C1421.74 268.857 1420.79 269.399 1419.69 269.824C1418.61 270.234 1417.38 270.439 1416 270.439C1414.45 270.439 1413.09 270.146 1411.93 269.561C1410.79 268.975 1409.9 268.176 1409.25 267.166C1408.62 266.14 1408.31 264.983 1408.31 263.694C1408.31 262.522 1408.56 261.475 1409.05 260.552C1409.55 259.614 1410.27 258.823 1411.21 258.179C1412.16 257.52 1413.3 257.021 1414.64 256.685C1415.98 256.333 1417.49 256.157 1419.16 256.157H1424.63ZM1436.28 250.796V279.141H1433.64V246.226H1436.1L1436.28 250.796ZM1452.8 257.893V258.354C1452.8 260.127 1452.6 261.753 1452.19 263.232C1451.78 264.712 1451.18 265.994 1450.41 267.078C1449.65 268.147 1448.7 268.975 1447.57 269.561C1446.44 270.146 1445.16 270.439 1443.73 270.439C1442.31 270.439 1441.04 270.22 1439.93 269.78C1438.81 269.341 1437.85 268.718 1437.05 267.913C1436.26 267.092 1435.62 266.14 1435.14 265.056C1434.67 263.958 1434.34 262.756 1434.15 261.453V255.366C1434.37 253.931 1434.73 252.627 1435.22 251.455C1435.72 250.283 1436.36 249.272 1437.14 248.423C1437.93 247.573 1438.86 246.921 1439.95 246.467C1441.03 246.013 1442.27 245.786 1443.66 245.786C1445.11 245.786 1446.4 246.072 1447.53 246.643C1448.67 247.2 1449.63 248.013 1450.41 249.082C1451.2 250.137 1451.79 251.411 1452.19 252.905C1452.6 254.385 1452.8 256.047 1452.8 257.893ZM1450.17 258.354V257.893C1450.17 256.501 1450.02 255.212 1449.73 254.026C1449.45 252.839 1449.02 251.807 1448.43 250.928C1447.86 250.034 1447.13 249.338 1446.23 248.84C1445.35 248.342 1444.31 248.093 1443.09 248.093C1441.83 248.093 1440.75 248.306 1439.86 248.73C1438.98 249.141 1438.25 249.69 1437.66 250.378C1437.08 251.052 1436.62 251.792 1436.28 252.598C1435.94 253.403 1435.69 254.194 1435.53 254.971V261.98C1435.81 263.093 1436.26 264.126 1436.87 265.078C1437.49 266.016 1438.31 266.77 1439.33 267.341C1440.37 267.898 1441.64 268.176 1443.13 268.176C1444.34 268.176 1445.38 267.927 1446.25 267.429C1447.13 266.931 1447.86 266.235 1448.43 265.342C1449.02 264.448 1449.45 263.408 1449.73 262.222C1450.02 261.035 1450.17 259.746 1450.17 258.354ZM570.908 316.737V304.477C570.908 303.349 570.673 302.375 570.205 301.554C569.736 300.734 569.047 300.104 568.139 299.665C567.231 299.225 566.11 299.005 564.777 299.005C563.547 299.005 562.448 299.225 561.481 299.665C560.529 300.089 559.775 300.668 559.218 301.4C558.676 302.118 558.405 302.917 558.405 303.795L555.769 303.773C555.769 302.88 555.988 302.016 556.428 301.181C556.867 300.346 557.49 299.599 558.295 298.939C559.101 298.28 560.061 297.76 561.174 297.379C562.302 296.984 563.54 296.786 564.887 296.786C566.586 296.786 568.081 297.072 569.37 297.643C570.673 298.214 571.691 299.071 572.424 300.214C573.156 301.356 573.522 302.792 573.522 304.521V316.012C573.522 316.833 573.581 317.682 573.698 318.561C573.83 319.44 574.013 320.165 574.248 320.736V321H571.457C571.281 320.473 571.142 319.813 571.04 319.022C570.952 318.217 570.908 317.455 570.908 316.737ZM571.523 307.157L571.567 309.179H566.403C565.056 309.179 563.847 309.303 562.778 309.552C561.723 309.787 560.83 310.138 560.097 310.607C559.365 311.061 558.801 311.61 558.405 312.255C558.024 312.899 557.834 313.632 557.834 314.452C557.834 315.302 558.046 316.078 558.471 316.781C558.911 317.484 559.526 318.048 560.317 318.473C561.123 318.883 562.075 319.088 563.173 319.088C564.638 319.088 565.927 318.817 567.041 318.275C568.168 317.733 569.099 317.023 569.831 316.144C570.563 315.265 571.054 314.306 571.303 313.266L572.446 314.782C572.255 315.514 571.904 316.269 571.391 317.045C570.893 317.807 570.241 318.524 569.436 319.198C568.63 319.857 567.678 320.399 566.579 320.824C565.495 321.234 564.265 321.439 562.888 321.439C561.335 321.439 559.98 321.146 558.823 320.561C557.68 319.975 556.787 319.176 556.142 318.166C555.512 317.14 555.197 315.983 555.197 314.694C555.197 313.522 555.446 312.475 555.944 311.552C556.442 310.614 557.16 309.823 558.098 309.179C559.05 308.52 560.192 308.021 561.525 307.685C562.873 307.333 564.382 307.157 566.052 307.157H571.523ZM589.343 319.176C590.456 319.176 591.496 318.971 592.463 318.561C593.444 318.136 594.25 317.514 594.88 316.693C595.524 315.858 595.891 314.84 595.979 313.639H598.483C598.41 315.148 597.949 316.496 597.099 317.682C596.264 318.854 595.166 319.777 593.803 320.451C592.456 321.11 590.969 321.439 589.343 321.439C587.688 321.439 586.223 321.139 584.948 320.539C583.688 319.938 582.634 319.103 581.784 318.034C580.935 316.95 580.29 315.69 579.851 314.254C579.426 312.804 579.213 311.244 579.213 309.574V308.651C579.213 306.981 579.426 305.429 579.851 303.993C580.29 302.543 580.935 301.283 581.784 300.214C582.634 299.13 583.688 298.288 584.948 297.687C586.208 297.086 587.666 296.786 589.321 296.786C591.02 296.786 592.543 297.13 593.891 297.819C595.253 298.507 596.337 299.481 597.143 300.741C597.963 302.001 598.41 303.495 598.483 305.224H595.979C595.905 303.949 595.568 302.851 594.968 301.928C594.367 301.005 593.576 300.294 592.595 299.796C591.613 299.298 590.522 299.049 589.321 299.049C587.973 299.049 586.823 299.313 585.871 299.84C584.919 300.353 584.143 301.063 583.542 301.972C582.956 302.865 582.524 303.891 582.246 305.048C581.967 306.19 581.828 307.392 581.828 308.651V309.574C581.828 310.849 581.96 312.064 582.224 313.222C582.502 314.364 582.934 315.382 583.52 316.276C584.121 317.169 584.897 317.88 585.849 318.407C586.816 318.92 587.98 319.176 589.343 319.176ZM612.546 319.176C613.659 319.176 614.699 318.971 615.666 318.561C616.647 318.136 617.453 317.514 618.083 316.693C618.728 315.858 619.094 314.84 619.182 313.639H621.687C621.613 315.148 621.152 316.496 620.302 317.682C619.467 318.854 618.369 319.777 617.006 320.451C615.659 321.11 614.172 321.439 612.546 321.439C610.891 321.439 609.426 321.139 608.151 320.539C606.892 319.938 605.837 319.103 604.987 318.034C604.138 316.95 603.493 315.69 603.054 314.254C602.629 312.804 602.417 311.244 602.417 309.574V308.651C602.417 306.981 602.629 305.429 603.054 303.993C603.493 302.543 604.138 301.283 604.987 300.214C605.837 299.13 606.892 298.288 608.151 297.687C609.411 297.086 610.869 296.786 612.524 296.786C614.223 296.786 615.747 297.13 617.094 297.819C618.457 298.507 619.541 299.481 620.346 300.741C621.167 302.001 621.613 303.495 621.687 305.224H619.182C619.108 303.949 618.771 302.851 618.171 301.928C617.57 301.005 616.779 300.294 615.798 299.796C614.816 299.298 613.725 299.049 612.524 299.049C611.176 299.049 610.026 299.313 609.074 299.84C608.122 300.353 607.346 301.063 606.745 301.972C606.159 302.865 605.727 303.891 605.449 305.048C605.17 306.19 605.031 307.392 605.031 308.651V309.574C605.031 310.849 605.163 312.064 605.427 313.222C605.705 314.364 606.137 315.382 606.723 316.276C607.324 317.169 608.1 317.88 609.052 318.407C610.019 318.92 611.184 319.176 612.546 319.176ZM636.167 321.439C634.614 321.439 633.186 321.154 631.882 320.583C630.593 320.011 629.465 319.206 628.498 318.166C627.546 317.125 626.806 315.895 626.279 314.474C625.766 313.039 625.51 311.471 625.51 309.772V308.827C625.51 306.996 625.781 305.341 626.323 303.861C626.865 302.382 627.612 301.115 628.564 300.06C629.516 299.005 630.6 298.2 631.816 297.643C633.046 297.072 634.335 296.786 635.683 296.786C637.192 296.786 638.532 297.057 639.704 297.599C640.876 298.126 641.857 298.881 642.648 299.862C643.454 300.829 644.062 301.979 644.472 303.312C644.882 304.63 645.087 306.088 645.087 307.685V309.289H627.092V307.047H642.473V306.74C642.443 305.407 642.172 304.162 641.66 303.004C641.162 301.833 640.415 300.88 639.418 300.148C638.422 299.416 637.177 299.049 635.683 299.049C634.57 299.049 633.544 299.284 632.607 299.752C631.684 300.221 630.886 300.895 630.212 301.774C629.553 302.638 629.04 303.671 628.674 304.872C628.322 306.059 628.146 307.377 628.146 308.827V309.772C628.146 311.09 628.337 312.321 628.718 313.463C629.113 314.591 629.67 315.587 630.388 316.452C631.12 317.316 631.984 317.99 632.98 318.473C633.977 318.957 635.075 319.198 636.276 319.198C637.683 319.198 638.928 318.942 640.012 318.429C641.096 317.902 642.07 317.074 642.934 315.946L644.582 317.221C644.069 317.982 643.425 318.686 642.648 319.33C641.887 319.975 640.971 320.487 639.902 320.868C638.833 321.249 637.587 321.439 636.167 321.439ZM664.511 314.936C664.511 314.291 664.35 313.654 664.028 313.024C663.706 312.394 663.083 311.815 662.16 311.288C661.252 310.761 659.912 310.314 658.139 309.948C656.821 309.655 655.642 309.325 654.602 308.959C653.576 308.593 652.712 308.153 652.009 307.641C651.306 307.128 650.771 306.513 650.405 305.795C650.039 305.077 649.855 304.228 649.855 303.246C649.855 302.367 650.046 301.54 650.427 300.763C650.822 299.972 651.379 299.284 652.097 298.698C652.829 298.097 653.708 297.628 654.733 297.292C655.773 296.955 656.938 296.786 658.227 296.786C660.058 296.786 661.625 297.101 662.929 297.731C664.248 298.346 665.251 299.188 665.939 300.258C666.643 301.327 666.994 302.536 666.994 303.883H664.379C664.379 303.063 664.138 302.287 663.654 301.554C663.186 300.822 662.49 300.221 661.567 299.752C660.659 299.284 659.545 299.049 658.227 299.049C656.865 299.049 655.759 299.254 654.909 299.665C654.06 300.075 653.437 300.595 653.042 301.225C652.661 301.854 652.47 302.506 652.47 303.18C652.47 303.708 652.551 304.191 652.712 304.63C652.888 305.055 653.195 305.451 653.635 305.817C654.089 306.183 654.733 306.527 655.568 306.85C656.403 307.172 657.487 307.487 658.82 307.794C660.739 308.219 662.307 308.739 663.522 309.354C664.753 309.955 665.661 310.702 666.247 311.596C666.833 312.475 667.126 313.544 667.126 314.804C667.126 315.785 666.921 316.686 666.511 317.506C666.101 318.312 665.507 319.008 664.731 319.594C663.969 320.18 663.046 320.634 661.962 320.956C660.893 321.278 659.692 321.439 658.359 321.439C656.352 321.439 654.653 321.11 653.261 320.451C651.884 319.777 650.837 318.898 650.119 317.814C649.416 316.715 649.064 315.551 649.064 314.32H651.679C651.767 315.551 652.155 316.525 652.844 317.243C653.532 317.946 654.375 318.444 655.371 318.737C656.381 319.03 657.377 319.176 658.359 319.176C659.707 319.176 660.834 318.979 661.743 318.583C662.651 318.188 663.339 317.667 663.808 317.023C664.277 316.378 664.511 315.683 664.511 314.936ZM687.319 314.936C687.319 314.291 687.158 313.654 686.835 313.024C686.513 312.394 685.891 311.815 684.968 311.288C684.06 310.761 682.719 310.314 680.947 309.948C679.628 309.655 678.449 309.325 677.409 308.959C676.384 308.593 675.52 308.153 674.816 307.641C674.113 307.128 673.579 306.513 673.212 305.795C672.846 305.077 672.663 304.228 672.663 303.246C672.663 302.367 672.854 301.54 673.234 300.763C673.63 299.972 674.187 299.284 674.904 298.698C675.637 298.097 676.516 297.628 677.541 297.292C678.581 296.955 679.746 296.786 681.035 296.786C682.866 296.786 684.433 297.101 685.737 297.731C687.055 298.346 688.059 299.188 688.747 300.258C689.45 301.327 689.802 302.536 689.802 303.883H687.187C687.187 303.063 686.945 302.287 686.462 301.554C685.993 300.822 685.297 300.221 684.375 299.752C683.466 299.284 682.353 299.049 681.035 299.049C679.672 299.049 678.566 299.254 677.717 299.665C676.867 300.075 676.245 300.595 675.849 301.225C675.468 301.854 675.278 302.506 675.278 303.18C675.278 303.708 675.358 304.191 675.52 304.63C675.695 305.055 676.003 305.451 676.442 305.817C676.896 306.183 677.541 306.527 678.376 306.85C679.211 307.172 680.295 307.487 681.628 307.794C683.547 308.219 685.114 308.739 686.33 309.354C687.561 309.955 688.469 310.702 689.055 311.596C689.641 312.475 689.934 313.544 689.934 314.804C689.934 315.785 689.729 316.686 689.318 317.506C688.908 318.312 688.315 319.008 687.539 319.594C686.777 320.18 685.854 320.634 684.77 320.956C683.701 321.278 682.5 321.439 681.167 321.439C679.16 321.439 677.46 321.11 676.069 320.451C674.692 319.777 673.645 318.898 672.927 317.814C672.224 316.715 671.872 315.551 671.872 314.32H674.487C674.575 315.551 674.963 316.525 675.651 317.243C676.34 317.946 677.182 318.444 678.178 318.737C679.189 319.03 680.185 319.176 681.167 319.176C682.514 319.176 683.642 318.979 684.55 318.583C685.458 318.188 686.147 317.667 686.616 317.023C687.084 316.378 687.319 315.683 687.319 314.936ZM713.466 315.441L719.201 297.226H721.047L719.948 302.125L713.95 321H712.104L713.466 315.441ZM707.512 297.226L712.543 315.551L713.62 321H711.708L704.809 297.226H707.512ZM728.188 315.485L733.088 297.226H735.791L728.891 321H727.001L728.188 315.485ZM721.42 297.226L727.067 315.287L728.496 321H726.65L720.52 302.104L719.487 297.226H721.42ZM743.767 297.226V321H741.152V297.226H743.767ZM740.69 290.348C740.69 289.85 740.844 289.433 741.152 289.096C741.474 288.744 741.914 288.568 742.47 288.568C743.027 288.568 743.466 288.744 743.789 289.096C744.125 289.433 744.294 289.85 744.294 290.348C744.294 290.832 744.125 291.249 743.789 291.601C743.466 291.938 743.027 292.106 742.47 292.106C741.914 292.106 741.474 291.938 741.152 291.601C740.844 291.249 740.69 290.832 740.69 290.348ZM759.938 297.226V299.379H748.029V297.226H759.938ZM752.402 291.117H755.017V315.221C755.017 316.32 755.163 317.147 755.456 317.704C755.749 318.261 756.13 318.634 756.599 318.825C757.067 319.015 757.573 319.11 758.115 319.11C758.51 319.11 758.891 319.088 759.257 319.044C759.624 318.986 759.953 318.927 760.246 318.869L760.356 321.088C760.034 321.19 759.616 321.271 759.104 321.33C758.591 321.403 758.078 321.439 757.565 321.439C756.555 321.439 755.661 321.256 754.885 320.89C754.108 320.509 753.5 319.865 753.061 318.957C752.622 318.034 752.402 316.781 752.402 315.199V291.117ZM768.068 287.25V321H765.454V287.25H768.068ZM767.475 307.641L766.311 306.981C766.398 305.575 766.684 304.257 767.167 303.026C767.651 301.796 768.303 300.712 769.123 299.774C769.958 298.837 770.932 298.104 772.045 297.577C773.173 297.05 774.418 296.786 775.781 296.786C776.967 296.786 778.029 296.947 778.967 297.27C779.904 297.592 780.703 298.104 781.362 298.808C782.021 299.511 782.519 300.412 782.856 301.51C783.208 302.609 783.383 303.949 783.383 305.531V321H780.747V305.509C780.747 303.869 780.52 302.587 780.065 301.664C779.611 300.727 778.967 300.06 778.132 299.665C777.297 299.269 776.308 299.071 775.166 299.071C773.906 299.071 772.8 299.35 771.848 299.906C770.91 300.448 770.119 301.159 769.475 302.038C768.845 302.902 768.361 303.832 768.024 304.828C767.688 305.81 767.504 306.747 767.475 307.641ZM803.752 302.301V321H801.137V297.226H803.642L803.752 302.301ZM803.159 307.641L801.994 306.981C802.082 305.575 802.368 304.257 802.851 303.026C803.334 301.796 803.986 300.712 804.807 299.774C805.642 298.837 806.616 298.104 807.729 297.577C808.857 297.05 810.102 296.786 811.464 296.786C812.651 296.786 813.713 296.947 814.65 297.27C815.588 297.592 816.386 298.104 817.045 298.808C817.705 299.511 818.203 300.412 818.54 301.51C818.891 302.609 819.067 303.949 819.067 305.531V321H816.43V305.509C816.43 303.869 816.203 302.587 815.749 301.664C815.295 300.727 814.65 300.06 813.815 299.665C812.98 299.269 811.992 299.071 810.849 299.071C809.589 299.071 808.483 299.35 807.531 299.906C806.594 300.448 805.803 301.159 805.158 302.038C804.528 302.902 804.045 303.832 803.708 304.828C803.371 305.81 803.188 306.747 803.159 307.641ZM824.428 309.486V308.761C824.428 307.033 824.677 305.436 825.175 303.971C825.673 302.506 826.384 301.239 827.307 300.17C828.244 299.101 829.365 298.273 830.668 297.687C831.972 297.086 833.422 296.786 835.019 296.786C836.63 296.786 838.088 297.086 839.392 297.687C840.695 298.273 841.816 299.101 842.753 300.17C843.691 301.239 844.409 302.506 844.907 303.971C845.405 305.436 845.654 307.033 845.654 308.761V309.486C845.654 311.215 845.405 312.812 844.907 314.276C844.409 315.727 843.691 316.986 842.753 318.056C841.831 319.125 840.717 319.96 839.414 320.561C838.11 321.146 836.66 321.439 835.063 321.439C833.452 321.439 831.994 321.146 830.69 320.561C829.387 319.96 828.266 319.125 827.329 318.056C826.391 316.986 825.673 315.727 825.175 314.276C824.677 312.812 824.428 311.215 824.428 309.486ZM827.043 308.761V309.486C827.043 310.79 827.219 312.028 827.57 313.2C827.922 314.357 828.435 315.39 829.108 316.298C829.782 317.191 830.617 317.895 831.613 318.407C832.609 318.92 833.759 319.176 835.063 319.176C836.352 319.176 837.487 318.92 838.469 318.407C839.465 317.895 840.3 317.191 840.974 316.298C841.647 315.39 842.153 314.357 842.49 313.2C842.841 312.028 843.017 310.79 843.017 309.486V308.761C843.017 307.472 842.841 306.249 842.49 305.092C842.153 303.935 841.64 302.902 840.952 301.994C840.278 301.085 839.443 300.368 838.447 299.84C837.451 299.313 836.308 299.049 835.019 299.049C833.73 299.049 832.587 299.313 831.591 299.84C830.61 300.368 829.775 301.085 829.086 301.994C828.413 302.902 827.9 303.935 827.548 305.092C827.211 306.249 827.043 307.472 827.043 308.761ZM876.328 314.936C876.328 314.291 876.167 313.654 875.844 313.024C875.522 312.394 874.899 311.815 873.977 311.288C873.068 310.761 871.728 310.314 869.956 309.948C868.637 309.655 867.458 309.325 866.418 308.959C865.393 308.593 864.528 308.153 863.825 307.641C863.122 307.128 862.587 306.513 862.221 305.795C861.855 305.077 861.672 304.228 861.672 303.246C861.672 302.367 861.862 301.54 862.243 300.763C862.639 299.972 863.195 299.284 863.913 298.698C864.646 298.097 865.524 297.628 866.55 297.292C867.59 296.955 868.754 296.786 870.043 296.786C871.875 296.786 873.442 297.101 874.746 297.731C876.064 298.346 877.067 299.188 877.756 300.258C878.459 301.327 878.811 302.536 878.811 303.883H876.196C876.196 303.063 875.954 302.287 875.471 301.554C875.002 300.822 874.306 300.221 873.383 299.752C872.475 299.284 871.362 299.049 870.043 299.049C868.681 299.049 867.575 299.254 866.726 299.665C865.876 300.075 865.253 300.595 864.858 301.225C864.477 301.854 864.287 302.506 864.287 303.18C864.287 303.708 864.367 304.191 864.528 304.63C864.704 305.055 865.012 305.451 865.451 305.817C865.905 306.183 866.55 306.527 867.385 306.85C868.22 307.172 869.304 307.487 870.637 307.794C872.556 308.219 874.123 308.739 875.339 309.354C876.569 309.955 877.478 310.702 878.063 311.596C878.649 312.475 878.942 313.544 878.942 314.804C878.942 315.785 878.737 316.686 878.327 317.506C877.917 318.312 877.324 319.008 876.547 319.594C875.786 320.18 874.863 320.634 873.779 320.956C872.709 321.278 871.508 321.439 870.175 321.439C868.168 321.439 866.469 321.11 865.078 320.451C863.701 319.777 862.653 318.898 861.936 317.814C861.232 316.715 860.881 315.551 860.881 314.32H863.496C863.583 315.551 863.972 316.525 864.66 317.243C865.349 317.946 866.191 318.444 867.187 318.737C868.198 319.03 869.194 319.176 870.175 319.176C871.523 319.176 872.651 318.979 873.559 318.583C874.467 318.188 875.156 317.667 875.625 317.023C876.093 316.378 876.328 315.683 876.328 314.936ZM887.819 297.226V321H885.205V297.226H887.819ZM884.743 290.348C884.743 289.85 884.897 289.433 885.205 289.096C885.527 288.744 885.966 288.568 886.523 288.568C887.08 288.568 887.519 288.744 887.841 289.096C888.178 289.433 888.347 289.85 888.347 290.348C888.347 290.832 888.178 291.249 887.841 291.601C887.519 291.938 887.08 292.106 886.523 292.106C885.966 292.106 885.527 291.938 885.205 291.601C884.897 291.249 884.743 290.832 884.743 290.348ZM910.649 297.226H913.088V320.583C913.088 322.648 912.692 324.42 911.901 325.9C911.125 327.379 910.019 328.515 908.583 329.306C907.163 330.097 905.485 330.492 903.552 330.492C902.57 330.492 901.56 330.338 900.52 330.031C899.494 329.738 898.52 329.284 897.597 328.668C896.689 328.068 895.913 327.321 895.268 326.427L896.74 324.823C897.707 325.995 898.74 326.852 899.838 327.394C900.937 327.951 902.124 328.229 903.398 328.229C904.907 328.229 906.181 327.929 907.221 327.328C908.276 326.728 909.074 325.863 909.616 324.735C910.173 323.607 910.451 322.252 910.451 320.67V302.455L910.649 297.226ZM893.95 309.354V308.893C893.95 307.047 894.155 305.385 894.565 303.905C894.99 302.411 895.598 301.137 896.389 300.082C897.18 299.013 898.139 298.2 899.267 297.643C900.41 297.072 901.699 296.786 903.134 296.786C904.511 296.786 905.734 297.013 906.804 297.467C907.873 297.921 908.796 298.573 909.572 299.423C910.349 300.272 910.971 301.283 911.44 302.455C911.923 303.627 912.275 304.931 912.495 306.366V312.233C912.319 313.581 911.997 314.818 911.528 315.946C911.059 317.06 910.437 318.034 909.66 318.869C908.884 319.689 907.946 320.326 906.848 320.78C905.764 321.22 904.511 321.439 903.09 321.439C901.669 321.439 900.395 321.146 899.267 320.561C898.139 319.975 897.18 319.147 896.389 318.078C895.598 316.994 894.99 315.712 894.565 314.232C894.155 312.753 893.95 311.127 893.95 309.354ZM896.586 308.893V309.354C896.586 310.746 896.726 312.035 897.004 313.222C897.282 314.408 897.707 315.441 898.278 316.32C898.85 317.199 899.575 317.887 900.454 318.385C901.333 318.883 902.365 319.132 903.552 319.132C905.061 319.132 906.328 318.847 907.353 318.275C908.378 317.689 909.191 316.92 909.792 315.968C910.393 315.001 910.832 313.947 911.11 312.804V305.971C910.949 305.194 910.7 304.403 910.363 303.598C910.041 302.792 909.587 302.052 909.001 301.378C908.43 300.69 907.697 300.141 906.804 299.73C905.925 299.306 904.855 299.093 903.596 299.093C902.395 299.093 901.347 299.342 900.454 299.84C899.575 300.338 898.85 301.034 898.278 301.928C897.707 302.807 897.282 303.839 897.004 305.026C896.726 306.212 896.586 307.501 896.586 308.893ZM922.58 302.301V321H919.965V297.226H922.47L922.58 302.301ZM921.987 307.641L920.822 306.981C920.91 305.575 921.196 304.257 921.679 303.026C922.163 301.796 922.814 300.712 923.635 299.774C924.47 298.837 925.444 298.104 926.557 297.577C927.685 297.05 928.93 296.786 930.292 296.786C931.479 296.786 932.541 296.947 933.479 297.27C934.416 297.592 935.214 298.104 935.874 298.808C936.533 299.511 937.031 300.412 937.368 301.51C937.719 302.609 937.895 303.949 937.895 305.531V321H935.258V305.509C935.258 303.869 935.031 302.587 934.577 301.664C934.123 300.727 933.479 300.06 932.644 299.665C931.809 299.269 930.82 299.071 929.677 299.071C928.417 299.071 927.312 299.35 926.359 299.906C925.422 300.448 924.631 301.159 923.986 302.038C923.356 302.902 922.873 303.832 922.536 304.828C922.199 305.81 922.016 306.747 921.987 307.641ZM952.88 305.751V308.014H942.355V305.751H952.88ZM972.854 315.507V297.226H975.49V321H972.963L972.854 315.507ZM973.337 311.112L974.699 311.068C974.699 312.562 974.523 313.939 974.172 315.199C973.82 316.459 973.271 317.558 972.524 318.495C971.777 319.433 970.81 320.158 969.624 320.67C968.437 321.183 967.009 321.439 965.339 321.439C964.182 321.439 963.12 321.278 962.153 320.956C961.201 320.619 960.38 320.092 959.692 319.374C959.003 318.656 958.469 317.726 958.088 316.583C957.722 315.441 957.539 314.057 957.539 312.431V297.226H960.153V312.475C960.153 313.749 960.292 314.811 960.571 315.661C960.864 316.51 961.259 317.191 961.757 317.704C962.27 318.217 962.856 318.583 963.515 318.803C964.174 319.022 964.885 319.132 965.646 319.132C967.58 319.132 969.104 318.759 970.217 318.012C971.345 317.265 972.143 316.283 972.612 315.067C973.095 313.837 973.337 312.519 973.337 311.112ZM984.96 301.796V330.141H982.324V297.226H984.785L984.96 301.796ZM1001.48 308.893V309.354C1001.48 311.127 1001.28 312.753 1000.87 314.232C1000.46 315.712 999.865 316.994 999.089 318.078C998.327 319.147 997.382 319.975 996.254 320.561C995.126 321.146 993.845 321.439 992.409 321.439C990.988 321.439 989.721 321.22 988.608 320.78C987.495 320.341 986.535 319.718 985.729 318.913C984.938 318.092 984.301 317.14 983.818 316.056C983.349 314.958 983.02 313.756 982.829 312.453V306.366C983.049 304.931 983.408 303.627 983.906 302.455C984.404 301.283 985.041 300.272 985.817 299.423C986.608 298.573 987.546 297.921 988.63 297.467C989.714 297.013 990.952 296.786 992.343 296.786C993.793 296.786 995.083 297.072 996.21 297.643C997.353 298.2 998.312 299.013 999.089 300.082C999.88 301.137 1000.47 302.411 1000.87 303.905C1001.28 305.385 1001.48 307.047 1001.48 308.893ZM998.847 309.354V308.893C998.847 307.501 998.701 306.212 998.408 305.026C998.129 303.839 997.697 302.807 997.111 301.928C996.54 301.034 995.808 300.338 994.914 299.84C994.035 299.342 992.988 299.093 991.772 299.093C990.512 299.093 989.436 299.306 988.542 299.73C987.663 300.141 986.931 300.69 986.345 301.378C985.759 302.052 985.297 302.792 984.96 303.598C984.624 304.403 984.375 305.194 984.213 305.971V312.98C984.492 314.093 984.938 315.126 985.554 316.078C986.169 317.016 986.989 317.77 988.015 318.341C989.055 318.898 990.322 319.176 991.816 319.176C993.017 319.176 994.057 318.927 994.936 318.429C995.815 317.931 996.54 317.235 997.111 316.342C997.697 315.448 998.129 314.408 998.408 313.222C998.701 312.035 998.847 310.746 998.847 309.354ZM1020.93 301.159V321H1018.31V297.226H1020.86L1020.93 301.159ZM1029.35 297.05L1029.28 299.467C1028.99 299.423 1028.7 299.386 1028.42 299.357C1028.14 299.328 1027.84 299.313 1027.52 299.313C1026.38 299.313 1025.38 299.525 1024.51 299.95C1023.66 300.36 1022.94 300.939 1022.36 301.686C1021.77 302.418 1021.33 303.283 1021.02 304.279C1020.71 305.26 1020.53 306.315 1020.49 307.443L1019.52 307.816C1019.52 306.264 1019.68 304.821 1020.01 303.488C1020.33 302.155 1020.82 300.99 1021.48 299.994C1022.15 298.983 1023 298.2 1024.01 297.643C1025.03 297.072 1026.23 296.786 1027.61 296.786C1027.95 296.786 1028.28 296.815 1028.6 296.874C1028.94 296.918 1029.18 296.977 1029.35 297.05ZM1042.22 321.439C1040.67 321.439 1039.24 321.154 1037.94 320.583C1036.65 320.011 1035.52 319.206 1034.55 318.166C1033.6 317.125 1032.86 315.895 1032.33 314.474C1031.82 313.039 1031.56 311.471 1031.56 309.772V308.827C1031.56 306.996 1031.84 305.341 1032.38 303.861C1032.92 302.382 1033.67 301.115 1034.62 300.06C1035.57 299.005 1036.65 298.2 1037.87 297.643C1039.1 297.072 1040.39 296.786 1041.74 296.786C1043.25 296.786 1044.59 297.057 1045.76 297.599C1046.93 298.126 1047.91 298.881 1048.7 299.862C1049.51 300.829 1050.12 301.979 1050.53 303.312C1050.94 304.63 1051.14 306.088 1051.14 307.685V309.289H1033.15V307.047H1048.53V306.74C1048.5 305.407 1048.23 304.162 1047.71 303.004C1047.22 301.833 1046.47 300.88 1045.47 300.148C1044.48 299.416 1043.23 299.049 1041.74 299.049C1040.62 299.049 1039.6 299.284 1038.66 299.752C1037.74 300.221 1036.94 300.895 1036.27 301.774C1035.61 302.638 1035.09 303.671 1034.73 304.872C1034.38 306.059 1034.2 307.377 1034.2 308.827V309.772C1034.2 311.09 1034.39 312.321 1034.77 313.463C1035.17 314.591 1035.72 315.587 1036.44 316.452C1037.17 317.316 1038.04 317.99 1039.04 318.473C1040.03 318.957 1041.13 319.198 1042.33 319.198C1043.74 319.198 1044.98 318.942 1046.07 318.429C1047.15 317.902 1048.12 317.074 1048.99 315.946L1050.64 317.221C1050.12 317.982 1049.48 318.686 1048.7 319.33C1047.94 319.975 1047.03 320.487 1045.96 320.868C1044.89 321.249 1043.64 321.439 1042.22 321.439ZM1071.77 330.141V301.796L1071.95 297.226H1074.39V330.141H1071.77ZM1055.27 309.354V308.893C1055.27 307.047 1055.48 305.385 1055.89 303.905C1056.3 302.411 1056.9 301.137 1057.69 300.082C1058.5 299.013 1059.46 298.2 1060.59 297.643C1061.73 297.072 1063.03 296.786 1064.48 296.786C1065.87 296.786 1067.11 297.013 1068.19 297.467C1069.28 297.921 1070.21 298.573 1070.98 299.423C1071.77 300.272 1072.41 301.283 1072.9 302.455C1073.38 303.627 1073.73 304.931 1073.95 306.366V312.233C1073.77 313.581 1073.44 314.818 1072.96 315.946C1072.49 317.06 1071.86 318.034 1071.07 318.869C1070.28 319.689 1069.33 320.326 1068.21 320.78C1067.12 321.22 1065.86 321.439 1064.44 321.439C1063 321.439 1061.71 321.146 1060.57 320.561C1059.44 319.975 1058.48 319.147 1057.69 318.078C1056.91 316.994 1056.31 315.712 1055.89 314.232C1055.48 312.753 1055.27 311.127 1055.27 309.354ZM1057.91 308.893V309.354C1057.91 310.746 1058.05 312.035 1058.33 313.222C1058.62 314.408 1059.05 315.448 1059.62 316.342C1060.19 317.235 1060.92 317.931 1061.8 318.429C1062.69 318.927 1063.73 319.176 1064.92 319.176C1066.43 319.176 1067.7 318.883 1068.74 318.297C1069.78 317.711 1070.61 316.935 1071.23 315.968C1071.85 315.001 1072.31 313.947 1072.59 312.804V305.971C1072.44 305.224 1072.19 304.447 1071.84 303.642C1071.49 302.836 1071.01 302.089 1070.41 301.4C1069.83 300.697 1069.09 300.133 1068.19 299.708C1067.3 299.269 1066.22 299.049 1064.96 299.049C1063.76 299.049 1062.71 299.306 1061.82 299.818C1060.94 300.316 1060.21 301.012 1059.62 301.906C1059.05 302.799 1058.62 303.839 1058.33 305.026C1058.05 306.212 1057.91 307.501 1057.91 308.893ZM1096.65 315.507V297.226H1099.28V321H1096.76L1096.65 315.507ZM1097.13 311.112L1098.49 311.068C1098.49 312.562 1098.32 313.939 1097.97 315.199C1097.61 316.459 1097.06 317.558 1096.32 318.495C1095.57 319.433 1094.6 320.158 1093.42 320.67C1092.23 321.183 1090.8 321.439 1089.13 321.439C1087.98 321.439 1086.91 321.278 1085.95 320.956C1084.99 320.619 1084.17 320.092 1083.49 319.374C1082.8 318.656 1082.26 317.726 1081.88 316.583C1081.52 315.441 1081.33 314.057 1081.33 312.431V297.226H1083.95V312.475C1083.95 313.749 1084.09 314.811 1084.36 315.661C1084.66 316.51 1085.05 317.191 1085.55 317.704C1086.06 318.217 1086.65 318.583 1087.31 318.803C1087.97 319.022 1088.68 319.132 1089.44 319.132C1091.37 319.132 1092.9 318.759 1094.01 318.012C1095.14 317.265 1095.94 316.283 1096.41 315.067C1096.89 313.837 1097.13 312.519 1097.13 311.112ZM1109.08 297.226V321H1106.47V297.226H1109.08ZM1106.01 290.348C1106.01 289.85 1106.16 289.433 1106.47 289.096C1106.79 288.744 1107.23 288.568 1107.79 288.568C1108.34 288.568 1108.78 288.744 1109.11 289.096C1109.44 289.433 1109.61 289.85 1109.61 290.348C1109.61 290.832 1109.44 291.249 1109.11 291.601C1108.78 291.938 1108.34 292.106 1107.79 292.106C1107.23 292.106 1106.79 291.938 1106.47 291.601C1106.16 291.249 1106.01 290.832 1106.01 290.348ZM1118.88 301.159V321H1116.27V297.226H1118.82L1118.88 301.159ZM1127.3 297.05L1127.23 299.467C1126.94 299.423 1126.65 299.386 1126.38 299.357C1126.1 299.328 1125.8 299.313 1125.48 299.313C1124.33 299.313 1123.33 299.525 1122.47 299.95C1121.62 300.36 1120.9 300.939 1120.31 301.686C1119.73 302.418 1119.28 303.283 1118.97 304.279C1118.66 305.26 1118.49 306.315 1118.44 307.443L1117.48 307.816C1117.48 306.264 1117.64 304.821 1117.96 303.488C1118.28 302.155 1118.77 300.99 1119.43 299.994C1120.11 298.983 1120.95 298.2 1121.96 297.643C1122.99 297.072 1124.19 296.786 1125.56 296.786C1125.9 296.786 1126.23 296.815 1126.55 296.874C1126.89 296.918 1127.14 296.977 1127.3 297.05ZM1140.18 321.439C1138.62 321.439 1137.19 321.154 1135.89 320.583C1134.6 320.011 1133.47 319.206 1132.51 318.166C1131.55 317.125 1130.81 315.895 1130.29 314.474C1129.77 313.039 1129.52 311.471 1129.52 309.772V308.827C1129.52 306.996 1129.79 305.341 1130.33 303.861C1130.87 302.382 1131.62 301.115 1132.57 300.06C1133.52 299.005 1134.61 298.2 1135.82 297.643C1137.06 297.072 1138.34 296.786 1139.69 296.786C1141.2 296.786 1142.54 297.057 1143.71 297.599C1144.88 298.126 1145.87 298.881 1146.66 299.862C1147.46 300.829 1148.07 301.979 1148.48 303.312C1148.89 304.63 1149.1 306.088 1149.1 307.685V309.289H1131.1V307.047H1146.48V306.74C1146.45 305.407 1146.18 304.162 1145.67 303.004C1145.17 301.833 1144.42 300.88 1143.43 300.148C1142.43 299.416 1141.19 299.049 1139.69 299.049C1138.58 299.049 1137.55 299.284 1136.62 299.752C1135.69 300.221 1134.89 300.895 1134.22 301.774C1133.56 302.638 1133.05 303.671 1132.68 304.872C1132.33 306.059 1132.16 307.377 1132.16 308.827V309.772C1132.16 311.09 1132.35 312.321 1132.73 313.463C1133.12 314.591 1133.68 315.587 1134.4 316.452C1135.13 317.316 1135.99 317.99 1136.99 318.473C1137.99 318.957 1139.08 319.198 1140.29 319.198C1141.69 319.198 1142.94 318.942 1144.02 318.429C1145.1 317.902 1146.08 317.074 1146.94 315.946L1148.59 317.221C1148.08 317.982 1147.43 318.686 1146.66 319.33C1145.9 319.975 1144.98 320.487 1143.91 320.868C1142.84 321.249 1141.6 321.439 1140.18 321.439ZM1169.73 316.386V287.25H1172.37V321H1169.9L1169.73 316.386ZM1153.23 309.354V308.893C1153.23 307.047 1153.44 305.385 1153.86 303.905C1154.29 302.411 1154.9 301.137 1155.69 300.082C1156.49 299.013 1157.46 298.2 1158.59 297.643C1159.72 297.072 1160.99 296.786 1162.41 296.786C1163.8 296.786 1165.03 297.013 1166.1 297.467C1167.17 297.921 1168.09 298.573 1168.85 299.423C1169.63 300.272 1170.25 301.283 1170.72 302.455C1171.2 303.627 1171.55 304.931 1171.77 306.366V312.233C1171.6 313.581 1171.27 314.818 1170.81 315.946C1170.34 317.06 1169.71 318.034 1168.94 318.869C1168.16 319.689 1167.22 320.326 1166.12 320.78C1165.04 321.22 1163.79 321.439 1162.37 321.439C1160.96 321.439 1159.69 321.146 1158.57 320.561C1157.44 319.975 1156.48 319.147 1155.69 318.078C1154.9 316.994 1154.29 315.712 1153.86 314.232C1153.44 312.753 1153.23 311.127 1153.23 309.354ZM1155.86 308.893V309.354C1155.86 310.746 1156 312.035 1156.28 313.222C1156.56 314.408 1156.98 315.441 1157.56 316.32C1158.13 317.199 1158.85 317.887 1159.73 318.385C1160.61 318.883 1161.65 319.132 1162.85 319.132C1164.36 319.132 1165.63 318.847 1166.65 318.275C1167.68 317.689 1168.5 316.92 1169.11 315.968C1169.73 315.001 1170.18 313.947 1170.45 312.804V305.971C1170.28 305.194 1170.02 304.403 1169.68 303.598C1169.35 302.792 1168.89 302.052 1168.3 301.378C1167.73 300.69 1167 300.141 1166.1 299.73C1165.22 299.306 1164.15 299.093 1162.9 299.093C1161.68 299.093 1160.63 299.342 1159.75 299.84C1158.87 300.338 1158.14 301.034 1157.56 301.928C1156.98 302.807 1156.56 303.839 1156.28 305.026C1156 306.212 1155.86 307.501 1155.86 308.893Z" fill="white"/>
<path d="M341.431 235.384C350.621 221.821 355.802 205.942 356.379 189.568C355.988 181.596 352.545 174.079 346.764 168.574C340.983 163.07 333.307 160 325.324 160C317.342 160 309.665 163.07 303.884 168.574C298.103 174.079 294.661 181.596 294.27 189.568C294.27 215.204 317.364 256.835 358.846 283.069" stroke="white" stroke-width="12" stroke-miterlimit="10" stroke-linecap="round"/>
<path d="M264.893 189.494C210.706 227.463 193.291 269.915 205.922 291.366C218.553 312.817 263.174 306.314 306.598 272.158" stroke="white" stroke-width="12" stroke-miterlimit="10" stroke-linecap="round"/>
<path d="M405.491 302.652C423.279 305.717 437.853 302.652 444.505 291.441C460.051 265.73 427.24 216.177 385.311 189.569" stroke="white" stroke-width="12" stroke-miterlimit="10" stroke-linecap="round"/>
<path d="M261.771 271.039C261.473 268.559 261.323 266.063 261.322 263.565C261.286 248.48 266.58 233.868 276.271 222.308" stroke="white" stroke-width="12" stroke-miterlimit="10" stroke-linecap="round"/>
<path d="M374.84 222.308C385.188 234.539 390.596 250.195 390.002 266.206C389.409 282.217 382.857 297.429 371.631 308.861C360.405 320.293 345.314 327.12 329.317 328.004C313.319 328.888 297.568 323.766 285.15 313.641" stroke="white" stroke-width="12" stroke-miterlimit="10" stroke-linecap="round"/>
</g>
<defs>
<linearGradient id="paint0_linear_1810_84" x1="1321.48" y1="-242" x2="1321.48" y2="418.49" gradientUnits="userSpaceOnUse">
<stop stop-color="#0E94FF" stop-opacity="0"/>
<stop offset="1" stop-color="#0E94FF"/>
</linearGradient>
<linearGradient id="paint1_linear_1810_84" x1="933.68" y1="-83.7119" x2="933.68" y2="529.363" gradientUnits="userSpaceOnUse">
<stop stop-color="#0E94FF" stop-opacity="0"/>
<stop offset="1" stop-color="#0E94FF"/>
</linearGradient>
<linearGradient id="paint2_linear_1810_84" x1="1806.18" y1="-83.3066" x2="1806.18" y2="529.597" gradientUnits="userSpaceOnUse">
<stop stop-color="#0E94FF" stop-opacity="0"/>
<stop offset="1" stop-color="#0E94FF"/>
</linearGradient>
<linearGradient id="paint3_linear_1810_84" x1="1105.06" y1="57.4287" x2="971.375" y2="350.658" gradientUnits="userSpaceOnUse">
<stop stop-color="#0E94FF" stop-opacity="0"/>
<stop offset="1" stop-color="#0E94FF"/>
</linearGradient>
<linearGradient id="paint4_linear_1810_84" x1="1380.72" y1="92.3984" x2="1380.72" y2="660.177" gradientUnits="userSpaceOnUse">
<stop stop-color="#0E94FF" stop-opacity="0"/>
<stop offset="1" stop-color="#0E94FF"/>
</linearGradient>
<clipPath id="clip0_1810_84">
<rect width="1744" height="500" rx="50" fill="white"/>
</clipPath>
</defs>
</svg>
